<?xml version="1.0" encoding="UTF-8" standalone="no"?>
<!-- Created with Inkscape (http://www.inkscape.org/) -->

<svg
   xmlns:dc="http://purl.org/dc/elements/1.1/"
   xmlns:cc="http://creativecommons.org/ns#"
   xmlns:rdf="http://www.w3.org/1999/02/22-rdf-syntax-ns#"
   xmlns:svg="http://www.w3.org/2000/svg"
   xmlns="http://www.w3.org/2000/svg"
   xmlns:sodipodi="http://sodipodi.sourceforge.net/DTD/sodipodi-0.dtd"
   xmlns:inkscape="http://www.inkscape.org/namespaces/inkscape"
   width="297.21463mm"
   height="338.29813mm"
   viewBox="0 0 1053.1227 1198.6941"
   id="svg4160"
   version="1.1"
   inkscape:version="0.91 r13725"
   sodipodi:docname="DancingCouple17.svg">
  <defs
     id="defs4162">
    <pattern
       y="0"
       x="0"
       height="6"
       width="6"
       patternUnits="userSpaceOnUse"
       id="EMFhbasepattern" />
  </defs>
  <sodipodi:namedview
     id="base"
     pagecolor="#ffffff"
     bordercolor="#666666"
     borderopacity="1.0"
     inkscape:pageopacity="0.0"
     inkscape:pageshadow="2"
     inkscape:zoom="0.55894158"
     inkscape:cx="526.56135"
     inkscape:cy="599.34707"
     inkscape:document-units="px"
     inkscape:current-layer="layer1"
     showgrid="false"
     fit-margin-top="0"
     fit-margin-left="0"
     fit-margin-right="0"
     fit-margin-bottom="0"
     inkscape:window-width="1600"
     inkscape:window-height="837"
     inkscape:window-x="-8"
     inkscape:window-y="-8"
     inkscape:window-maximized="1" />
  <metadata
     id="metadata4165">
    <rdf:RDF>
      <cc:Work
         rdf:about="">
        <dc:format>image/svg+xml</dc:format>
        <dc:type
           rdf:resource="http://purl.org/dc/dcmitype/StillImage" />
        <dc:title></dc:title>
      </cc:Work>
    </rdf:RDF>
  </metadata>
  <g
     inkscape:label="Layer 1"
     inkscape:groupmode="layer"
     id="layer1"
     transform="translate(7020.8251,3749.1453)">
    <path
       inkscape:connector-curvature="0"
       style="fill:#000000"
       d="m -6133.738,-3749.1347 c -19.8509,0.2473 -33.6433,4.7947 -38.6484,13.0039 -2.4948,4.0918 -2.3602,7.3292 0.541,13.0547 2.3804,4.6974 2.3958,4.8573 1,10.5157 -0.7796,3.1601 -1.9056,12.0742 -2.502,19.8085 l -1.084,14.0626 2.5215,5.0097 c 2.5187,5.0032 2.5197,5.0163 0.8926,9.375 -0.8961,2.4008 -2.9875,7.3184 -4.6465,10.9277 -5.0066,10.8925 -5.5784,13.2865 -3.8223,15.9668 0.8292,1.2654 3.609,3.3644 6.1778,4.6661 l 4.6699,2.3671 0,5.5411 c 0,4.6151 0.3526,5.8268 2.1094,7.25 1.4776,1.1969 2.0203,2.4978 1.8086,4.3437 -0.1993,1.7377 0.5259,3.7234 2.1328,5.8301 2.2971,3.0117 2.3855,3.5149 1.5351,8.7949 -1.1094,6.8887 -0.012,11.4548 3.3946,14.1348 2.2716,1.7868 3.5131,1.9274 14.9199,1.6836 9.2522,-0.1976 12.7555,0.047 13.6621,0.9531 0.89,0.8897 1.2188,4.9397 1.2188,15 0,11.7158 -0.2694,14.3261 -1.8028,17.416 -2.1131,4.2575 -7.3819,7.093 -13.2344,7.125 -4.721,0.026 -13.4331,2.2539 -18.0371,4.6113 -1.9179,0.982 -8.033,5.1893 -13.5879,9.3497 -13.3634,10.0081 -15.2483,10.554 -37.7128,10.9375 -19.5231,0.3333 -21.3307,0.6121 -52.4786,8.0918 -19.1975,4.6099 -19.8787,4.7044 -28.5937,3.9687 -11.114,-0.9382 -13.5332,-0.7616 -23.459,1.7109 -8.8366,2.2011 -23.5103,2.7015 -37.5996,1.2813 l -8.0703,-0.8145 -7.3985,3.5371 c -7.8094,3.7327 -16.4465,11.5342 -27.5078,24.8477 l -5.0625,6.0938 3.0918,0.3027 c 2.9756,0.291 5.0942,-0.7158 14.4785,-6.8809 l 2.7149,-1.7832 -0.6192,3.2422 c -0.3405,1.7838 -0.8775,6.2597 -1.1914,9.9453 -0.522,6.1284 -0.4032,6.7907 1.3711,7.7403 1.8661,0.9988 1.8865,1.2164 0.543,5.7402 -1.5359,5.1717 -1.2505,6.25 1.9805,7.4785 3.2252,1.2262 7.7858,-0.3834 15.584,-5.5019 16.8659,-11.0705 36.1235,-19.8206 43.623,-19.8106 2.4923,0 11.0703,1.0527 19.0625,2.3359 55.3528,8.8875 71.7048,10.9689 90.9375,11.5801 l 19.2188,0.6114 -0.1876,2.3437 c -0.1033,1.2891 -0.8418,9.9374 -1.6406,19.2187 -2.6062,30.2823 -7.0781,95.1056 -7.0781,102.6036 0,9.4244 -0.4853,9.8606 -10.084,9.0703 -3.9923,-0.3287 -14.6426,-1.0038 -23.666,-1.502 -9.0235,-0.4981 -22.3124,-1.798 -29.5313,-2.8886 -16.8283,-2.5423 -22.2175,-2.116 -30.9374,2.4472 l -6.5626,3.4336 -10.8164,-0.6367 c -10.9345,-0.6438 -16.5038,0.3314 -15.5839,2.7285 0.2502,0.6522 -1.5534,1.0429 -5.0391,1.0899 -8.0821,0.1098 -14.4542,3.588 -21.7344,11.8652 -10.8635,12.3514 -22.1828,23.1953 -24.2129,23.1953 -1.0712,0 -6.6688,-2.8022 -12.4375,-6.2266 -5.7688,-3.4245 -15.6893,-8.9631 -22.0468,-12.3086 -6.3574,-3.3456 -15.4279,-8.8485 -20.1563,-12.2285 -18.0341,-12.8913 -37.983,-27.9511 -46.0977,-34.8008 -4.6405,-3.9173 -13.078,-10.0368 -18.75,-13.5976 -19.682,-12.3565 -25.342,-16.331 -31.0039,-21.7734 -8.7747,-8.4343 -25.5656,-31.9139 -35.0898,-49.0665 -7.6017,-13.6902 -34.6649,-57.3391 -37.3984,-60.3183 -3.9655,-4.3221 -13.3331,-11.4403 -18.4493,-14.0195 -6.7427,-3.399 -14.4924,-5.2019 -24.7773,-5.7618 -7.7942,-0.4244 -9.6663,-0.8831 -14.9941,-3.6757 -5.2359,-2.7442 -6.174,-3.6329 -6.7071,-6.3477 -0.341,-1.7363 -1.082,-5.4039 -1.6465,-8.1504 -1.5397,-7.491 -1.2646,-12.4161 0.8907,-15.9512 1.4204,-2.3298 2.32,-2.9581 3.5117,-2.4511 9.3715,3.9868 17.6587,6.1776 21.3047,5.6308 5.6328,-0.8448 7.3223,-3.1181 7.791,-10.4785 0.3539,-5.5573 0.6105,-6.191 2.8359,-7.0371 3.2398,-1.2317 3.858,-2.3819 3.875,-7.207 0.01,-2.4112 0.6083,-4.6472 1.4824,-5.5215 0.9636,-0.9635 1.4203,-2.955 1.3243,-5.791 -0.081,-2.378 -0.1105,-4.7952 -0.064,-5.3711 0.046,-0.5757 2.1934,-1.9227 4.7715,-2.9942 4.5473,-1.8898 4.6875,-2.0634 4.6875,-5.7968 0,-2.1166 -0.6856,-5.175 -1.5234,-6.795 -0.8377,-1.6201 -2.4994,-5.8175 -3.6934,-9.3281 -1.7065,-5.0172 -1.8934,-6.3828 -0.873,-6.3828 0.714,0 2.481,-1.0913 3.9277,-2.4258 2.1038,-1.9406 2.2556,-2.3139 0.7559,-1.8633 -1.5676,0.4711 -1.4908,0.2443 0.4687,-1.3808 l 2.3437,-1.9434 -3,1.4629 c -4.0728,1.9855 -5.6535,1.9121 -3.8164,-0.1777 0.7933,-0.9024 2.3897,-3.5264 3.5489,-5.8301 1.8982,-3.7728 2.0355,-4.936 1.3789,-11.7188 -0.401,-4.1416 -0.8383,-11.6225 -0.9727,-16.625 -0.2684,-10.0017 -1.4072,-14.6534 -4.2051,-17.1855 -1.0118,-0.9157 -1.8398,-2.6271 -1.8398,-3.8027 0,-5.5466 -6.5212,-15.5871 -13.5898,-20.9239 -16.6838,-12.5963 -32.0588,-17.5918 -51.4688,-16.7187 -13.1348,0.5908 -18.758,1.8861 -25.2949,5.8223 l -5.1973,3.1289 -4.4902,-3.2071 c -8.4862,-6.0609 -14.7135,-6.1507 -24.9785,-0.3574 -8.3833,4.7312 -11.4891,8.7143 -14.252,18.2774 -2.551,8.8287 -2.1419,16.4066 1.4043,25.9902 1.6643,4.4977 3.8711,9.2531 4.9043,10.5664 2.574,3.2723 6.6718,5.2251 10.3535,4.9355 l 3.0782,-0.2421 0.092,12.1874 c 0.098,13.0318 0.4815,14.633 5.4883,22.9317 2.6958,4.4681 3.3531,6.8313 4.7051,16.9121 0.8645,6.4453 1.8047,19.5234 2.0879,29.0625 0.4853,16.3447 0.3777,17.9108 -1.8711,27.1875 -1.3125,5.4141 -2.5262,10.6213 -2.6953,11.5723 -0.2742,1.542 -1.4728,1.7605 -11.0879,2.0175 -14.2369,0.3805 -19.1972,1.3783 -40.0664,8.0508 -23.002,7.3545 -30.3783,8.2362 -51.8086,6.2012 -13.0784,-1.2418 -16.8587,-1.9736 -24.4609,-4.7402 -6.1507,-2.2384 -11.9267,-3.579 -18.2813,-4.2422 -37.3815,-3.9012 -50.6917,-4.1266 -62.2187,-1.0567 -9.7272,2.5907 -14.0654,2.2647 -29.5938,-2.2246 -20.2717,-5.8605 -40.7042,-8.6942 -43.3828,-6.0156 -3.0586,3.0586 0.8045,5.7997 9.6562,6.8496 6.3977,0.7589 12.48,3.1408 17.1915,6.7344 3.0837,2.352 3.1496,2.5258 1.457,3.7871 -0.9758,0.7269 -7.1849,4.0828 -13.7988,7.457 -13.9242,7.1037 -19.3809,11.6338 -19.3809,16.0899 0,5.0928 3.3457,4.067 19.127,-5.8575 4.5904,-2.8869 9.02,-5.2357 9.8437,-5.2207 0.8237,0.015 -3.8824,5.1826 -10.459,11.4844 -6.5766,6.3018 -11.9531,12.1953 -11.9531,13.0977 0,1.2363 0.7798,1.6406 3.1543,1.6406 2.8558,0 3.1111,0.2197 2.7051,2.3438 -0.3762,1.9679 -0.093,2.342 1.7695,2.332 3.1283,-0.016 8.4441,-3.2562 21.4277,-13.0664 13.6996,-10.3512 16.7008,-12.2305 19.584,-12.2305 2.1405,0 2.2066,0.1939 1.6406,4.918 -0.3764,3.1419 -2.291,8.3122 -5.2929,14.2969 -5.0775,10.1227 -5.7177,13.969 -2.9043,17.4433 1.5327,1.8929 1.9722,2.0124 3.3144,0.8984 0.8514,-0.7066 3.0675,-4.0006 4.9239,-7.3203 4.3728,-7.8193 12.6044,-16.6645 18.0996,-19.4492 2.3886,-1.2104 7.6214,-3.154 11.6289,-4.3183 6.996,-2.0328 7.7804,-2.0708 19.6367,-0.9688 14.7647,1.3723 19.3154,2.4758 35.0644,8.4981 16.2301,6.2062 24.2023,7.6165 45.3633,8.0312 20.545,0.4027 23.3605,1.04 40.2012,9.082 6.4453,3.0778 17.9705,8.1017 25.6113,11.166 15.8762,6.3671 17.7258,7.4102 19.3125,10.8926 1.0836,2.3781 4.2824,32.8449 6.6231,63.0762 0.5788,7.4766 1.8736,20.7656 2.8769,29.5312 1.9953,17.4323 2.3492,36.0699 0.8594,45.25 -2.2965,14.1519 -10.138,32.6137 -22.5879,53.1876 -15.2173,25.1472 -17.4645,30.0839 -23.6992,52.0312 -6.1588,21.6802 -8.2086,34.7755 -8.7539,55.9648 -0.5401,20.9809 0.4628,31.3864 4.6601,48.375 l 2.9649,11.9961 -1.1504,17.5352 c -0.6319,9.6445 -1.8957,21.2233 -2.8106,25.7305 l -1.664,8.1953 3.332,0.539 c 9.1654,1.4853 8.6307,1.1255 8.0625,5.42 -1.6215,12.2575 -3.48,32.4679 -5.2285,56.8691 -2.683,37.4394 -4.8523,55.0919 -7.8965,64.2598 -3.7886,11.4094 -11.4433,23.2507 -27.2461,42.1464 -29.2205,34.9397 -36.0986,49.3281 -40.7851,85.3126 -1.0744,8.25 -3.0102,20.2734 -4.3008,26.7187 -2.75,13.7338 -13.8939,48.0648 -18.2617,56.2597 -3.6872,6.9178 -11.3058,14.1688 -21.1895,20.166 -4.0272,2.4436 -10.0846,6.2729 -13.4609,8.5097 -9.9249,6.5751 -12.7087,13.8912 -9.8848,25.9825 3.0322,12.9833 2.0023,17.472 -7.4961,32.6504 -3.8219,6.1074 -6.9492,11.668 -6.9492,12.3554 0,0.6875 0.9545,2.1462 2.1211,3.2422 l 2.1211,1.9922 7.957,-11.8301 c 12.1043,-17.9956 14.8564,-20.1336 21.4903,-16.7031 4.0831,2.1115 9.8049,9.1773 13.5195,16.6953 2.6174,5.2971 3.8606,9.7164 5.6367,20.0313 3.3826,19.644 6.5432,25.0439 16.7129,28.5566 5.9869,2.0677 20.5257,2.2697 38.0137,0.5254 13.9187,-1.3883 14.7714,-1.9627 14.7714,-9.9316 10e-5,-6.8127 -1.2193,-8.316 -10.2636,-12.6661 -7.3814,-3.5503 -16.8198,-12.4472 -17.9395,-16.9082 -0.3535,-1.4086 0.042,-6.6298 0.8789,-11.6035 0.8366,-4.9737 2.1621,-15.1601 2.9453,-22.6367 2.1967,-20.969 4.8463,-34.0626 8.9161,-44.0625 20.4874,-50.3392 21.1738,-51.8639 32.7441,-72.6563 7.1615,-12.8694 26.4462,-51.703 32.3555,-65.1561 7.3179,-16.6598 10.119,-22.1155 19.1679,-37.3164 5.1247,-8.6089 10.0063,-16.4961 10.8477,-17.5274 1.4817,-1.816 1.5163,-1.7865 1.0625,0.9376 -0.2577,1.5467 -1.6147,13.5297 -3.0137,26.6289 l -2.5429,23.8164 1.6035,12.4179 c 2.5885,20.0395 6.9564,34.495 21.6484,71.6679 17.5699,44.4542 20.998,56.3869 19.9102,69.2949 -0.7511,8.9109 -2.989,14.6663 -8.5977,22.1113 -6.4271,8.5315 -7.0689,9.8716 -7.0449,14.7032 0.024,4.6757 1.7556,8.7693 7.8613,18.5781 2.4071,3.8672 5.4629,10.5067 6.791,14.7539 2.2153,7.0838 2.3857,8.8029 2.0567,20.7852 l -0.3594,13.0625 2.6152,0.3828 c 1.4383,0.2111 3.4006,-0.1669 4.3614,-0.8399 1.5532,-1.0879 1.7978,-2.9688 2.1953,-16.9492 0.4169,-14.6527 1.5774,-21.8203 3.5332,-21.8203 1.4191,0 6.9909,7.8355 10.2988,14.4824 1.971,3.9605 4.2171,7.0797 5.625,7.8106 1.7163,0.8912 6.485,1.1407 17.8125,0.9316 17.4209,-0.3214 19.0656,-0.8006 33.3867,-9.7266 8.5193,-5.3099 10.6758,-7.8822 10.6758,-12.7343 0,-3.3553 -0.3026,-3.7989 -3.5156,-5.1465 -1.9335,-0.811 -7.1879,-2.2282 -11.6758,-3.1504 -4.488,-0.9223 -8.6034,-1.9514 -9.1465,-2.2871 -1.9535,-1.2074 -3.9012,-6.3525 -7.0371,-18.5879 -1.7545,-6.8454 -5.3074,-18.3364 -7.8945,-25.5352 -5.0195,-13.967 -13.4525,-46.9329 -14.9805,-58.5566 -0.5083,-3.8672 -1.4028,-13.5703 -1.9863,-21.5625 -0.5835,-7.9922 -1.7091,-21.7031 -2.502,-30.4687 -0.7929,-8.7656 -1.8,-23.7421 -2.2383,-33.2812 -0.4384,-9.5391 -1.2771,-21.5625 -1.8632,-26.7188 -1.0843,-9.5411 -0.871,-14.4908 1.4101,-32.8124 0.7061,-5.6719 1.5675,-17.0626 1.9141,-25.3126 0.7766,-18.4835 3.1694,-32.9669 12.1601,-73.5937 3.8225,-17.2734 8.0351,-37.9453 9.3614,-45.9375 1.3262,-7.9922 3.4399,-20.0156 4.6972,-26.7188 1.2574,-6.703 2.9286,-17.25 3.7149,-23.4374 0.7864,-6.1876 2.4967,-19.4766 3.7988,-29.5313 1.3023,-10.0547 3.6358,-31.9922 5.1855,-48.75 6.2387,-67.4584 13.928,-120.9167 24.3438,-169.2187 6.4486,-29.9049 6.7879,-30.96 13.4746,-42.1036 7.3217,-12.202 11.373,-22.5935 11.373,-29.166 l 0,-4.707 21.6329,19.9805 c 11.8983,10.9895 24.0421,21.7822 26.9863,23.9843 2.9442,2.2021 11.8852,7.5635 19.8672,11.9141 7.982,4.3505 18.4085,10.1884 23.1699,12.9727 25.1197,14.6886 53.2986,27.6889 82.7012,38.1542 6.693,2.3822 14.2868,5.3761 16.875,6.6543 9.9684,4.9253 13.8309,5.8249 21.0683,4.9161 14.9231,-1.8738 18.7048,-2.8849 24.1895,-6.4707 5.7417,-3.7538 13.9815,-11.3869 21.1504,-19.5899 3.8925,-4.4536 4.3906,-4.7651 4.3906,-2.748 0,6.0035 3.0049,12.4127 8.3047,17.7168 2.9096,2.9119 6.2713,6.6107 7.4707,8.2207 2.8737,3.8574 6.7135,3.8912 12.6738,0.1113 6.9635,-4.4162 12.0664,-6.7914 29.8418,-13.8926 20.503,-8.1908 24.507,-8.9688 41.7656,-8.1074 l 13.3379,0.666 0.4922,2.9356 c 1.0937,6.5229 2.4683,20.2585 4.7031,46.996 6.8339,81.762 12.7995,139.3605 19.1973,185.375 4.0988,29.4791 7.1084,53.1328 8.0254,63.0626 0.3332,3.6093 1.3966,9.3046 2.3633,12.6562 2.485,8.6162 4.3804,18.0321 5.5801,27.7344 0.5686,4.5977 2.8827,17.8515 5.1445,29.4531 6.2967,32.2983 7.3306,40.7076 6.7988,55.3125 -0.3275,8.9925 -0.043,15.0988 0.9824,21.0938 0.9636,5.6343 1.3996,13.7319 1.3106,24.375 -0.1185,14.2085 0.1777,17.5645 2.7305,30.9374 2.6842,14.0613 2.8237,15.8508 2.2168,28.5937 -0.5022,10.5411 -0.3194,15.3833 0.8164,21.5625 2.5039,13.6181 3.3799,24.681 2.4648,31.0801 -1.4003,9.7928 -8.9649,30.361 -18.9121,51.4199 -3.0445,6.4453 -7.445,16.2413 -9.7793,21.7695 -5.261,12.4594 -10.0221,19.9114 -18.0352,28.2227 -7.1286,7.394 -11.2758,10.0682 -20.4296,13.1816 -8.8102,2.9965 -11.4428,4.4817 -15.42,8.7012 -4.8192,5.1128 -6.8335,8.9919 -6.1289,11.7988 0.798,3.1794 2.4575,3.4815 19.3594,3.5215 9.4667,0.022 18.7789,0.6738 26.7187,1.8672 6.7032,1.0075 15.9844,1.8314 20.625,1.832 9.4135,0 11.962,-0.8453 21.9102,-7.2929 3.2844,-2.1286 7.5031,-4.1345 9.375,-4.4571 1.8718,-0.3226 7.4866,-1.598 12.4785,-2.834 11.8872,-2.9434 14.3576,-2.9017 17.1055,0.293 1.9127,2.2237 3.0118,2.5877 8.7891,2.9141 3.8928,0.22 12.8259,-0.5043 21.7695,-1.7656 13.3978,-1.8894 15.2599,-2.3662 15.959,-4.086 0.4353,-1.0709 1.6425,-7.4694 2.6836,-14.2187 1.0411,-6.7492 2.3203,-13.3938 2.8418,-14.7657 1.1016,-2.8972 3.3323,-3.4289 2.5976,-0.6191 -0.2697,1.0313 -0.1079,1.875 0.3594,1.875 0.4674,0 0.8494,1.1602 0.8594,2.5781 0.014,3.9162 4.027,11.7068 7.5625,14.6817 3.0875,2.5979 3.314,2.6397 11.1484,2.0078 16.4584,-1.3276 23.4337,-4.0842 31.9883,-12.6387 6.9544,-6.9544 11.4671,-14.1214 14.6074,-23.1973 2.4301,-7.0232 2.5456,-8.204 2.6836,-27.4941 0.081,-11.3523 0.6724,-23.319 1.3535,-27.3984 l 1.209,-7.2442 5.3965,-1.0605 5.3945,-1.0625 0.168,-40.9141 c 0.092,-22.5028 0.2401,-51.0389 0.3281,-63.4139 0.2088,-29.2294 -1.0203,-63.7515 -2.7539,-77.3438 -0.7563,-5.9297 -1.7792,-20.2734 -2.2734,-31.875 -0.4941,-11.6016 -1.5409,-27.2109 -2.3262,-34.6875 -0.822,-7.8271 -1.7868,-30.8938 -2.2734,-54.375 -1.2048,-58.1528 -1.5425,-63.4911 -5.2539,-83.0957 -3.0494,-16.106 -3.2208,-18.0822 -3.2208,-37.5 0,-21.4659 -0.795,-28.6315 -5.0019,-45.3184 l -2.1426,-8.5 1.8731,-4.3261 c 1.8376,-4.2452 1.8411,-4.4528 0.1777,-10.9961 -1.9461,-7.655 -16.0238,-56.6693 -20.0918,-69.9532 -3.4298,-11.1995 -6.1906,-24.4789 -8.0586,-38.7617 -1.7905,-13.6894 -2.1432,-61.4806 -0.5273,-71.3925 1.4404,-8.8352 9.6547,-41.2777 13.7304,-54.2266 8.1178,-25.7915 11.6055,-45.8973 11.6055,-66.9004 0,-15.9103 -1.725,-27.9901 -5.5371,-38.7734 -3.8701,-10.9472 -11.9612,-24.7159 -19.207,-32.6817 -3.5549,-3.9082 -10.7573,-12.1679 -16.0039,-18.3555 -22.9147,-27.0239 -24.8692,-32.0079 -20.9883,-53.5058 1.5656,-8.6723 3.8771,-14.1943 9.8398,-23.5156 8.1407,-12.726 10.9031,-23.1576 11.0078,-41.5723 0.083,-14.6272 -1.7956,-25.3698 -5.6797,-32.4727 -3.3415,-6.1108 -23.5036,-25.8305 -29.0996,-28.4609 -6.7397,-3.168 -32.6891,-8.1627 -49.1308,-9.457 -5.1929,-0.4088 -10.0948,-0.5805 -14.6758,-0.5235 z m 95.2988,1080.3339 c 0.078,-1e-4 0.1609,0.013 0.2481,0.035 3.005,0.7781 3.5788,13.8145 1.3105,29.7656 -2.4315,17.0985 -3.0799,15.339 -2.9629,-8.0527 0.094,-18.7628 0.2382,-21.7457 1.4043,-21.7481 z"
       id="path4425" />
  </g>
</svg>
