<?xml version="1.0" encoding="UTF-8" standalone="no"?>
<svg
   xmlns:dc="http://purl.org/dc/elements/1.1/"
   xmlns:cc="http://creativecommons.org/ns#"
   xmlns:rdf="http://www.w3.org/1999/02/22-rdf-syntax-ns#"
   xmlns:svg="http://www.w3.org/2000/svg"
   xmlns="http://www.w3.org/2000/svg"
   xmlns:sodipodi="http://sodipodi.sourceforge.net/DTD/sodipodi-0.dtd"
   xmlns:inkscape="http://www.inkscape.org/namespaces/inkscape"
   viewBox="0 0 109.02 206.093"
   xml:space="preserve"
   id="svg2"
   version="1.1"
   inkscape:version="0.91 r13725"
   sodipodi:docname="dance_category_jazz.svg"><metadata
     id="metadata10"><rdf:RDF><cc:Work
         rdf:about=""><dc:format>image/svg+xml</dc:format><dc:type
           rdf:resource="http://purl.org/dc/dcmitype/StillImage" /><dc:title></dc:title></cc:Work></rdf:RDF></metadata><sodipodi:namedview
     bordercolor="#666666"
     borderopacity="1"
     objecttolerance="10"
     gridtolerance="10"
     guidetolerance="10"
     inkscape:pageopacity="0"
     inkscape:pageshadow="2"
     inkscape:window-width="1536"
     inkscape:window-height="801"
     id="namedview8"
     showgrid="false"
     inkscape:zoom="2.2902282"
     inkscape:cx="114.93667"
     inkscape:cy="81.362775"
     inkscape:window-x="-8"
     inkscape:window-y="-8"
     inkscape:window-maximized="1"
     inkscape:current-layer="svg2" /><path
     d="m10.111,109.553c-3.863-3.552-6.394-6.572-8.125-9.414-1.732-2.931-2.043-3.597-1.954-7.46-.089-3.907 1.865-11.545 2.265-15.896 .133-4.485-1.11-7.594-.311-10.347 .799-2.842 3.197-3.864 5.506-6.483 2.354-2.619 4.84-5.817 8.126-9.414l-.977-4.884c-3.597-2.442-5.595-5.195-6.483-8.082-.844-3.02-.311-7.016 1.599-9.414 1.776-2.353 6.394-4.44 9.414-4.529 2.931-.178 6.261,2.086 8.126,3.552 1.51,1.421 1.599,2.931 1.954,4.529 .266,1.465.311,2.708.622,4.218 .311,1.465 1.42,2.931 1.643,4.218 .133,1.021-.089,2.042-.667,2.576 1.333-.178 2.842-.711 4.529-1.599 1.555-1.11 2.887-2.575 5.196-3.907 2.265-1.333 5.372-.977 8.126-3.552 2.575-2.62 5.461-8.615 7.46-11.99 1.776-3.552 2.886-7.105 3.862-8.747 .845-1.688 1.555.488 1.954-1.333 .267-1.998-.532-8.526.666-10.346 1.198-1.909 4.441-1.155 6.483-.667 1.909.4 2.043.4 5.194,3.242 3.109,2.931 10.169,9.592 12.968,13.632 2.619,3.774 3.597,6.971 2.931,9.414 1.064,1.421 1.864,2.709 1.909,4.529-.045,1.732-1.333,3.73-1.288,5.506 0,1.643 1.864,3.108 1.643,4.218-.354.844-2.975.577-3.597,1.599-.8,1.199-.311,3.686-.932,4.884-.756.977-1.777,1.243-3.243.977l-.665,2.931c1.154,2.22 2.397,3.997 3.553,5.506 1.109,1.466 2.131,2.487 3.241,3.242 2.176-2.176 3.863-3.952 5.551-5.507 1.599-1.554 3.063-1.954 3.862-3.597 .622-1.909-.755-4.75 0-6.793 .667-2.087 2.31-4.441 3.908-5.195 1.466-.755 4.618-.799 4.84.355 .089,1.065-3.774,3.863-4.219,5.816-.532,1.776.666,3.108.666,5.195-.311,1.999.222,4.529-1.643,7.105-1.864,2.62-4.929,5.106-9.369,8.126 .222,2.22 0,4.218-.666,6.483-.8,2.087-2.442,4.085-3.552,6.483-1.288,2.442-2.265,4.973-2.931,7.771-.623,2.665-1.066,5.106-.978,7.815 3.286,4.174 5.551,7.948 6.794,11.99 1.154,3.775.532,7.282.355,11.367-.267,4.086-.577,5.95-1.954,12.967-1.643,6.971-4.485,23.045-6.795,28.196-2.308,4.974-4.529,5.462-6.837,1.643-3.198,4.175-5.729,7.638-7.771,10.392-2.086,2.753-3.597,4.796-4.529,6.128-.222,3.773-.222,6.971 0,9.413 0,2.354-.311,3.107 1.288,5.195 1.688,2.176 7.459,5.417 8.747,7.149 1.11,1.332-.398,1.51-1.642,1.909-1.332.444-4.175,1.287-6.129.666-2.086-.754-4.085-2.486-6.172-5.195 .489,2.487.755,4.484 1.287,6.172 .534,1.643 2.043,3.064 1.288,3.552-.977.355-4.885.445-7.104-1.287-2.265-1.954-4.885-7.593-6.482-9.725-1.776-2.22-3.021-3.241-3.908-3.241 1.154,2.176 1.11,3.73-.311,4.84-1.555,1.021-6.439,1.643-8.126,1.332-1.687-.532-1.776-2.575-1.954-3.907-.311-1.422-.133-2.709.355-4.219-1.82,1.644-2.842.844-3.597-2.575-.71-3.508-.977-9.281-.622-17.85h-2.62c.488,1.997.222,3.507-.311,4.528-.754.889-1.998,1.154-3.552,1.288-1.732.133-5.329,0-6.172-.933-.799-1.065 1.11-3.375 1.288-5.55-.089-2.31.044-3.864-.978-8.083-1.243-4.396-4.352-12.921-5.195-17.539-.799-4.574.045-6.661.311-10.035 .134-3.508.355-7.238.666-11.012-.843-1.6-1.376-3.064-1.598-4.574-.222-1.688.577-3.198 0-4.53-.709-1.373-2.174-2.394-4.217-3.238zm55.772-96.624c.534,3.108.312,6.172-.666,9.369-1.109,3.153-3.107,5.773-5.506,9.725-2.53,3.863-6.127,8.925-8.747,13.321-2.709,4.218-5.95,6.039-6.794,12.3-.843,6.217.888,18.96 1.599,24.689 .532,5.372 1.421,5.95 1.643,8.437 .044,2.531-.222,4.574-.977,6.483 4.085-5.15 7.771-8.57 10.701-10.746 2.886-2.043 5.372-2.842 7.104-1.909-.4-5.729-.622-10.435-.311-14.299 .134-3.952.8-6.705 1.643-8.747-1.554-1.688-2.309-3.908-2.62-7.15-.355-3.241.09-7.237.978-11.989-1.775,2.087-3.021,2.842-3.908,2.931-.932-.178-1.819-1.199-1.287-3.241 .444-2.176 3.108-6.75 4.218-9.103 .845-2.354 1.155-4.307 1.954-4.84 .845-.666 1.866-.178 3.241,1.288 .089-1.376 1.066-2.397 2.931-3.241 1.866-.888 4.441-1.599 8.081-1.954-.311-1.954-.888-4.219-1.909-6.794-1.109-2.665-2.352-5.462-4.218-8.748-.398,1.289-1.109,2.087-2.31,2.887-1.244.665-2.797,1.109-4.84,1.331zm-19.448,133.258c.799,1.421 2.309,2.398 4.529,2.931 2.131.444 6.482-.577 8.437,0 1.864.4 3.064,1.332 3.241,2.62-.843,1.377-1.599,3.196-2.265,5.816-.621,2.575-1.11,6.396-1.953,9.415-1.021,2.886-2.486,5.639-4.219,8.081-.488.4-1.199.888-1.954,1.643-.888.711-1.865,1.51-2.931,2.576-1.109-3.818-1.688-7.549-1.909-11.013-.222-3.553.666-6.439.622-10.036-.178-3.819-.711-7.592-1.598-12.033z"
     fill-rule="evenodd"
     stroke="#000"
     stroke-miterlimit="10"
     id="path6" /></svg>