<?xml version="1.0" encoding="UTF-8" standalone="no"?>
<svg
   xmlns:dc="http://purl.org/dc/elements/1.1/"
   xmlns:cc="http://creativecommons.org/ns#"
   xmlns:rdf="http://www.w3.org/1999/02/22-rdf-syntax-ns#"
   xmlns:svg="http://www.w3.org/2000/svg"
   xmlns="http://www.w3.org/2000/svg"
   xmlns:sodipodi="http://sodipodi.sourceforge.net/DTD/sodipodi-0.dtd"
   xmlns:inkscape="http://www.inkscape.org/namespaces/inkscape"
   version="1.0"
   viewBox="0 0 399.59526 561.48867"
   preserveAspectRatio="xMidYMid meet"
   id="svg2"
   inkscape:version="0.91 r13725"
   sodipodi:docname="dance_category_miscellaneous.svg"
   width="399.59528"
   height="561.48865">
  <sodipodi:namedview
     pagecolor="#ffffff"
     bordercolor="#666666"
     borderopacity="1"
     objecttolerance="10"
     gridtolerance="10"
     guidetolerance="10"
     inkscape:pageopacity="0"
     inkscape:pageshadow="2"
     inkscape:window-width="640"
     inkscape:window-height="480"
     id="namedview10"
     showgrid="false"
     inkscape:zoom="0.39333333"
     inkscape:cx="302.16866"
     inkscape:cy="248.25883"
     inkscape:window-x="-1"
     inkscape:window-y="4"
     inkscape:window-maximized="0"
     inkscape:current-layer="svg2"
     fit-margin-top="0"
     fit-margin-left="0"
     fit-margin-right="0"
     fit-margin-bottom="0" />
  <metadata
     id="metadata4">
Created by potrace 1.13, written by Peter Selinger 2001-2015
<rdf:RDF>
  <cc:Work
     rdf:about="">
    <dc:format>image/svg+xml</dc:format>
    <dc:type
       rdf:resource="http://purl.org/dc/dcmitype/StillImage" />
    <dc:title></dc:title>
  </cc:Work>
</rdf:RDF>
</metadata>
  <g
     transform="matrix(0.02925944,0,0,-0.02925944,-3.0517582e-5,561.48865)"
     id="g6"
     style="fill:#000000;stroke:none">
    <path
       d="m 5485,19161 c -79,-37 -145,-108 -145,-154 0,-34 -36,-99 -69,-124 -9,-7 -81,-47 -161,-89 -230,-122 -238,-130 -246,-256 -8,-111 2,-130 114,-214 90,-67 111,-85 272,-227 107,-94 185,-151 221,-161 24,-8 70,-27 154,-68 l 46,-21 450,27 c 484,29 483,29 559,-20 19,-12 125,-93 234,-181 185,-147 203,-164 249,-238 34,-55 51,-94 54,-125 3,-26 28,-93 60,-160 31,-63 128,-263 215,-445 92,-190 166,-355 174,-390 8,-33 61,-307 119,-610 104,-540 106,-552 100,-655 -6,-102 -5,-109 38,-260 48,-167 48,-179 -2,-224 -27,-24 -58,-16 -98,26 -29,31 -36,55 -102,344 -39,171 -71,325 -71,343 0,18 7,64 16,103 25,111 1,174 -87,218 -35,18 -51,20 -123,14 -57,-4 -95,-3 -122,6 -31,10 -126,99 -440,410 -330,326 -410,401 -448,415 l -46,18 -657,-365 c -612,-340 -661,-369 -700,-417 -39,-47 -43,-57 -43,-107 0,-30 7,-68 15,-84 8,-15 106,-174 218,-352 112,-177 209,-333 215,-345 28,-52 15,-105 -63,-265 -71,-147 -74,-155 -66,-201 16,-93 76,-131 247,-158 141,-22 163,-31 215,-86 42,-44 486,-805 506,-868 12,-35 12,-47 0,-82 -8,-22 -133,-263 -279,-534 -146,-272 -275,-511 -286,-531 -10,-21 -37,-63 -58,-94 -31,-45 -39,-65 -39,-103 0,-46 7,-55 662,-922 364,-482 668,-890 677,-907 9,-17 16,-48 16,-68 0,-21 -118,-410 -267,-883 -259,-821 -268,-847 -307,-892 -23,-26 -166,-193 -320,-370 -153,-178 -330,-373 -392,-434 -111,-108 -120,-121 -500,-685 -213,-316 -402,-594 -421,-616 -18,-23 -296,-249 -617,-502 -325,-257 -606,-486 -635,-519 -47,-52 -1379,-1854 -1478,-1998 -23,-33 -58,-76 -80,-97 C 1886,2905 335,1757 281,1733 204,1699 153,1655 125,1599 111,1573 94,1547 86,1543 60,1528 0,1440 0,1416 c 0,-14 9,-62 20,-107 14,-59 27,-91 48,-113 16,-17 36,-43 44,-57 22,-35 69,-54 104,-42 18,6 72,3 158,-8 210,-26 426,-13 676,41 214,46 235,55 330,146 123,117 498,426 545,449 33,16 115,35 243,58 138,24 201,40 220,54 15,11 48,49 73,84 75,106 136,132 207,89 18,-11 113,-78 210,-149 212,-153 278,-183 356,-161 47,13 126,95 1949,2019 1045,1103 1928,2034 1961,2068 72,72 106,85 152,57 48,-29 442,-497 460,-546 8,-22 14,-59 14,-81 0,-22 59,-400 131,-841 123,-753 133,-806 166,-881 41,-93 517,-1276 569,-1413 31,-83 45,-160 135,-735 54,-353 102,-649 105,-657 3,-8 8,-57 11,-109 4,-84 10,-104 48,-190 35,-76 55,-106 98,-146 30,-27 80,-80 111,-116 48,-57 67,-71 131,-98 74,-31 76,-31 247,-31 l 172,0 43,42 c 24,23 78,60 120,83 90,47 129,94 165,203 l 24,69 -42,449 c -23,247 -47,466 -53,486 -6,20 -13,76 -16,125 -2,58 -36,250 -99,563 -79,389 -96,491 -96,565 0,49 18,425 41,834 45,810 46,774 -8,927 -23,68 -31,77 -174,220 -151,149 -189,200 -189,250 0,27 399,1333 424,1390 18,38 67,62 99,46 12,-6 99,-79 192,-162 277,-248 277,-248 632,-89 241,107 296,140 309,183 10,30 53,95 94,141 l 36,40 82,441 c 46,243 85,480 88,525 8,120 -52,1328 -70,1409 -8,36 -125,361 -261,723 l -247,658 26,39 c 14,21 33,41 43,44 10,3 144,28 298,56 278,51 304,60 347,107 10,11 34,93 59,208 23,105 50,205 61,223 31,51 71,75 253,151 184,78 195,79 243,28 14,-15 179,-565 547,-1822 289,-990 531,-1815 537,-1834 24,-77 111,-141 190,-141 49,0 187,61 224,99 43,44 50,66 31,94 -20,31 -1177,3787 -1177,3821 0,45 35,97 124,186 122,120 129,156 46,246 -21,23 -46,57 -56,75 -9,19 -62,101 -117,183 -77,116 -103,163 -113,208 -20,83 -25,92 -129,193 l -91,90 -494,1640 c -271,902 -500,1654 -508,1670 -23,47 -81,114 -112,130 -59,31 -89,21 -210,-66 -111,-81 -150,-124 -150,-165 0,-12 13,-50 29,-85 47,-104 1063,-3220 1063,-3261 1,-24 -8,-51 -23,-73 -31,-46 -609,-548 -673,-585 -62,-36 -612,-176 -651,-166 -14,4 -41,21 -60,39 -22,20 -207,338 -516,882 -264,468 -489,866 -499,885 -10,20 -18,53 -17,74 1,34 -4,43 -42,75 l -43,36 5,90 c 9,164 6,319 -37,1635 -29,902 -46,1311 -54,1325 -6,11 -16,45 -22,76 -15,77 -64,178 -104,214 -18,17 -230,275 -470,575 -403,503 -444,551 -529,617 -192,152 -1222,886 -1251,893 -17,4 -58,24 -91,43 -33,20 -73,43 -90,52 -16,8 -205,53 -420,100 -318,70 -407,93 -480,126 -49,21 -101,39 -115,39 -14,0 -52,-13 -85,-29 z"
       id="path8"
       inkscape:connector-curvature="0" />
  </g>
</svg>
