<?xml version="1.0" encoding="UTF-8" standalone="no"?>
<!-- Created with Inkscape (http://www.inkscape.org/) -->

<svg
   xmlns:dc="http://purl.org/dc/elements/1.1/"
   xmlns:cc="http://creativecommons.org/ns#"
   xmlns:rdf="http://www.w3.org/1999/02/22-rdf-syntax-ns#"
   xmlns:svg="http://www.w3.org/2000/svg"
   xmlns="http://www.w3.org/2000/svg"
   xmlns:sodipodi="http://sodipodi.sourceforge.net/DTD/sodipodi-0.dtd"
   xmlns:inkscape="http://www.inkscape.org/namespaces/inkscape"
   id="svg2733"
   sodipodi:docname="dance_category_folk.svg"
   viewBox="0 0 444.79 490.71"
   version="1.0"
   inkscape:version="0.91 r13725">
  <defs
     id="defs7" />
  <sodipodi:namedview
     id="namedview8"
     bordercolor="#666666"
     inkscape:pageshadow="2"
     guidetolerance="10"
     pagecolor="#ffffff"
     gridtolerance="10"
     inkscape:window-maximized="1"
     inkscape:zoom="0.89702956"
     objecttolerance="10"
     borderopacity="1"
     inkscape:current-layer="layer1"
     inkscape:cx="278.43197"
     inkscape:cy="218.43206"
     inkscape:window-y="-8"
     inkscape:window-x="-8"
     inkscape:window-width="1536"
     showgrid="false"
     inkscape:pageopacity="0"
     inkscape:window-height="801" />
  <g
     id="layer1"
     transform="translate(-32.428 -20.796)">
    <path
       id="path2846"
       style="fill:#000000"
       inkscape:connector-curvature="0"
       d="m 165.85,507.1248 c 0,-3.3951 2.2512,-6.6667 5.8767,-8.5404 6.5651,-3.3929 8.6609,-10.114 10.429,-33.442 0.93605,-12.352 0.42826,-15.894 -2.4306,-16.953 -2.2511,-0.83415 -4.0794,0.37984 -4.8483,3.2192 -2.061,7.6106 -7.6557,5.1168 -10.876,-4.848 -1.672,-5.1735 -3.0401,-10.517 -3.0401,-11.874 0,-3.51 -17.967,-25.007 -26.145,-31.283 -12.309,-9.4451 -17.559,-11.502 -22.647,-8.8732 -11.862,6.1302 -36.877996,0.83008 -41.536996,-8.8003 -1.7274,-3.5703 -3.9266,-8.0851 -4.8871,-10.033 -0.96051,-1.9477 -6.9122,-6.1211 -13.226,-9.2741 -7.1388,-3.565 -12.011,-7.7779 -12.885,-11.141 -1.4401,-5.5409 3.8248,-15.759 13.864,-26.908 4.9128,-5.4557 4.9552,-5.8473 0.72185,-6.6623 -13.556,-2.6098 -24.629,-20.102 -21.138,-33.394 2.1652,-8.2455 4.2074,-8.9833 21.215,-7.665 17.056,1.3221 25.427,-0.97441 52.571996,-14.423 13.352,-6.6148 17.316,-9.6211 15.28,-11.587 -4.4368,-4.2844 -3.3585,-5.5665 8.2968,-9.8649 15.109,-5.5721 18.376,-9.1167 15.851,-17.199 -1.1202,-3.5854 -3.2296,-10.313 -4.6876,-14.95 -1.458,-4.6369 -2.678,-10.48 -2.7112,-12.985 -0.0332,-2.5048 -6.6699,-11.313 -14.748,-19.575 -17.906,-18.312 -21.711,-25.117 -25.918997,-46.362 -6.1085,-30.83801 -3.4488,-39.867009 18.608997,-63.173009 8.0688,-8.5254 12.339,-15.122 12.339,-19.06 0,-8.0821 3.6335,-9.766 9.0224,-4.1815 4.3516,4.5096 4.6156,4.4151 16.093,-5.7633 16.269,-14.427 40.855,-24.649 40.92,-17.014 0.0235,2.7234 25.946,15.936 31.266,15.936 1.2859,0 3.6278,1.5009 5.2044,3.3353 1.5766,1.8344 10.873,7.007 20.659,11.495 12.484,5.7252 23.206,13.232 35.939,25.164 20.955,19.635999 38,31.830999 40.039,28.645999 0.77848,-1.2164 -0.94793,-3.8102 -3.8365,-5.764 -3.8186,-2.5829 -4.71,-4.720899 -3.2664,-7.834399 1.0921,-2.3552 2.0923,-13.218 2.2228,-24.14 l 0.23707,-19.858 20.388,-0.69589 20.388,-0.69589 14.17,12.045 c 12.989,11.041 16.515,18.407 8.8343,18.458 -2.8733,0.01894 -8.9065,10.538 -8.9065,15.528 0,1.5404 -1.5709,5.724799 -3.491,9.298599 -5.7414,10.686 2.0872,17.91001 37.661,34.75101 45.396,21.491 67.233,38.29 64.223,49.405 -1.6687,6.1621 -16.825,21.041 -25.122,24.663 -3.3208,1.4494 -8.9985,3.9858 -12.617,5.6365 -8.8159,4.0216 -32.189,4.1901 -37.083,0.26747 -3.2744,-2.6242 -5.0013,-2.246 -11.143,2.4407 -3.9972,3.0504 -7.3285,6.101 -7.4028,6.779 -0.0744,0.678 3.1315,5.0598 7.1241,9.7373 6.574,7.7015 16.57,12.825 45.304,23.223 18.567,6.7184 23.37,12.205 18.452,21.079 -1.4299,2.5802 -5.1224,6.0731 -8.2053,7.762 -26.228,14.369 -33.473,20.551 -33.473,28.567 0,6.3622 -6.869,13.458 -13.028,13.458 -2.2473,0 -4.0859,1.5936 -4.0859,3.5413 0,1.9477 0.97287,3.5413 2.1619,3.5413 3.6736,0 3.0597,56.586 -0.66971,61.727 -3.8363,5.289 -7.1517,2.5143 -9.8082,-8.2085 -0.91067,-3.6759 -5.9635,-11.113 -11.228,-16.526 l -9.5726,-9.8427 0.95558,14.165 c 1.755,26.016 2.5102,102.27 1.0272,103.71 -0.80506,0.78239 -5.895,1.7853 -11.311,2.2288 -5.4161,0.44343 -12.428,2.5519 -15.583,4.6855 -7.7002,5.2082 -33.985,5.4942 -33.985,0.36969 0,-1.9303 3.8265,-5.0536 8.5034,-6.9406 4.6768,-1.887 10.795,-6.9477 13.596,-11.246 4.4528,-6.8332 4.9126,-10.188 3.66,-26.702 -2.8822,-38.002 -4.1204,-44.752 -9.1798,-50.041 -3.3976,-3.5516 -5.4789,-10.031 -6.6091,-20.575 -0.90727,-8.4648 -2.1466,-15.813 -2.754,-16.329 -3.2379,-2.7512 -22.033,-3.1217 -25.986,-0.51215 -2.4509,1.6178 -7.2286,3.59 -10.617,4.3827 -3.3884,0.79271 -8.3722,3.3416 -11.075,5.6642 -7.5399,6.4793 -18.543,11.78 -27.994,13.485 -4.7063,0.84917 -14.608,4.4246 -22.003,7.9455 -7.3956,3.5208 -13.501,6.4015 -13.567,6.4015 -0.0661,0 0.54417,12.383 1.3561,27.518 1.3216,24.635 2.1665,28.525 8.0658,37.133 10.084,14.715 8.599,28.604 -3.0588,28.604 -4.755,0 -7.4839,1.7027 -9.4679,5.9076 -3.676,7.7908 -16.801,15.32 -26.724,15.331 -6.6945,0.007 -7.9457,-0.85773 -7.9457,-5.4944 z M 302.77418,199.84809 c 0,-1.9236 -1.3304,-10.989 -2.9564,-20.146 -2.7789,-15.649 -4.0737,-17.955 -21.56,-38.408 -10.232,-11.968 -26.948,-30.25901 -37.148,-40.64701 -10.306,-10.496999 -21.635,-24.899999 -25.503,-32.422999 l -6.9588,-13.536 -13.913,-0.03883 c -7.6524,-0.02137 -14.593,-1.1012 -15.424,-2.3997 -2.2189,-3.4669 -4.1183,-2.8665 -11.939,3.7734 -5.2522,4.4594 -6.3429,6.6671 -4.2784,8.6607 4.6221,4.4634 3.1394,8.2279 -4.2158,10.704 -6.0889,2.0497 -7.1992,3.8995 -8.6411,14.396 -0.91,6.6244 -2.7168,12.043999 -4.0152,12.043999 -1.2983,0 -2.3606,4.2496 -2.3606,9.4435 0,5.1939 0.97761,9.44351 2.1725,9.44351 1.19489,0 8.432,-5.85451 16.083,-13.01001 22.707,-21.237999 43.035,-27.540999 55.113,-17.087999 10.268,8.8859 12.678,19.756999 10.785,48.648009 l -1.6876,25.755 20.027,13.851 c 11.015,7.6183 24.09,16.224 29.057,19.125 10.551,6.1613 27.366,7.3001 27.366,1.8533 z"
       sodipodi:nodetypes="csccscsccccsccscsccscssccsssccsssccscccccscsssscscccccccsssscsscscccsssscsccssccsscssccccsscccsccscssssccscsccc" />
  </g>
  <metadata
     id="metadata6">
    <rdf:RDF>
      <cc:Work>
        <dc:format>image/svg+xml</dc:format>
        <dc:type
           rdf:resource="http://purl.org/dc/dcmitype/StillImage" />
        <cc:license
           rdf:resource="http://creativecommons.org/licenses/publicdomain/" />
        <dc:publisher>
          <cc:Agent
             rdf:about="http://openclipart.org/">
            <dc:title>Openclipart</dc:title>
          </cc:Agent>
        </dc:publisher>
      </cc:Work>
      <cc:License
         rdf:about="http://creativecommons.org/licenses/publicdomain/">
        <cc:permits
           rdf:resource="http://creativecommons.org/ns#Reproduction" />
        <cc:permits
           rdf:resource="http://creativecommons.org/ns#Distribution" />
        <cc:permits
           rdf:resource="http://creativecommons.org/ns#DerivativeWorks" />
      </cc:License>
    </rdf:RDF>
  </metadata>
</svg>
